HIERARCHY
ROOT Hips
{
	OFFSET -3.958830 18.904000 13.208200
	CHANNELS 6 Xposition Yposition Zposition Zrotation Yrotation Xrotation 
	JOINT LHipJoint
	{
		OFFSET 0.000000 0.000000 0.000000
		CHANNELS 3 Zrotation Yrotation Xrotation
		JOINT LeftUpLeg
		{
			OFFSET 1.800000 -1.400000 0.085000
			CHANNELS 3 Zrotation Yrotation Xrotation
			JOINT LeftLeg
			{
				OFFSET 2.215000 -6.000000 0.000000
				CHANNELS 3 Zrotation Yrotation Xrotation
				JOINT LeftFoot
				{
					OFFSET 2.500000 -6.900000 0.000000
					CHANNELS 3 Zrotation Yrotation Xrotation
					JOINT LeftToeBase
					{
						OFFSET 0.200000 -0.500000 1.950000
						CHANNELS 3 Zrotation Yrotation Xrotation
						End Site
						{
							OFFSET 0.000000 0.000000 0.000000
						}
					}
				}
			}
		}
	}
	JOINT RHipJoint
	{
		OFFSET 0.000000 0.000000 0.000000
		CHANNELS 3 Zrotation Yrotation Xrotation
		JOINT RightUpLeg
		{
			OFFSET -1.800000 -1.400000 0.085000
			CHANNELS 3 Zrotation Yrotation Xrotation
			JOINT RightLeg
			{
				OFFSET -2.215000 -6.000000 0.000000
				CHANNELS 3 Zrotation Yrotation Xrotation
				JOINT RightFoot
				{
					OFFSET -2.500000 -6.900000 0.000000
					CHANNELS 3 Zrotation Yrotation Xrotation
					JOINT RightToeBase
					{
						OFFSET -0.200000 -0.500000 1.950000
						CHANNELS 3 Zrotation Yrotation Xrotation
						End Site
						{
							OFFSET 0.000000 0.000000 0.000000
						}
					}
				}
			}
		}
	}
	JOINT LowerBack
	{
		OFFSET 0.000000 0.000000 0.000000
		CHANNELS 3 Zrotation Yrotation Xrotation
		JOINT Spine
		{
			OFFSET -0.087000 1.940000 -0.288900
			CHANNELS 3 Zrotation Yrotation Xrotation
			JOINT Spine1
			{
				OFFSET 0.000000 1.950000 0.060000
				CHANNELS 3 Zrotation Yrotation Xrotation
				JOINT Neck
				{
					OFFSET 0.000000 0.000000 0.000000
					CHANNELS 3 Zrotation Yrotation Xrotation
					JOINT Neck1
					{
						OFFSET 0.000000 1.600000 0.340000
						CHANNELS 3 Zrotation Yrotation Xrotation
						JOINT Head
						{
							OFFSET 0.000000 1.667000 -0.240000
							CHANNELS 3 Zrotation Yrotation Xrotation
							End Site
							{
								OFFSET 0.000000 0.000000 0.000000
							}
						}
					}
				}
				JOINT LeftShoulder
				{
					OFFSET 0.000000 0.000000 0.000000
					CHANNELS 3 Zrotation Yrotation Xrotation
					JOINT LeftArm
					{
						OFFSET 2.700000 1.550000 -0.730000
						CHANNELS 3 Zrotation Yrotation Xrotation
						JOINT LeftForeArm
						{
							OFFSET 5.450000 0.000000 0.000000
							CHANNELS 3 Zrotation Yrotation Xrotation
							JOINT LeftHand
							{
								OFFSET 3.450000 0.000000 0.000000
								CHANNELS 3 Zrotation Yrotation Xrotation
								JOINT LeftHandIndex1
								{
									OFFSET 0.750000 0.000000 0.000000
									CHANNELS 3 Zrotation Yrotation Xrotation
									End Site
									{
										OFFSET 0.000000 0.000000 0.000000
									}
								}
							}
						}
					}
				}
				JOINT RightShoulder
				{
					OFFSET 0.000000 0.000000 0.000000
					CHANNELS 3 Zrotation Yrotation Xrotation
					JOINT RightArm
					{
						OFFSET -2.700000 1.550000 -0.730000
						CHANNELS 3 Zrotation Yrotation Xrotation
						JOINT RightForeArm
						{
							OFFSET -5.450000 0.000000 0.000000
							CHANNELS 3 Zrotation Yrotation Xrotation
							JOINT RightHand
							{
								OFFSET -3.450000 0.000000 0.000000
								CHANNELS 3 Zrotation Yrotation Xrotation
								JOINT RightHandIndex1
								{
									OFFSET -0.750000 0.000000 0.000000
									CHANNELS 3 Zrotation Yrotation Xrotation
									End Site
									{
										OFFSET 0.000000 0.000000 0.000000
									}
								}
							}
						}
					}
				}
			}
		}
	}
}
MOTION
Frames: 14
Frame Time: 0.016667
-0.721200 15.955520 -2.005750 -5.493738 31.324959 -14.788546 -15.378725 11.936163 3.336917 18.862133 2.905308 -38.575536 14.920798 6.448223 48.967764 0.430030 8.413665 1.397935 0.351880 0.252900 0.170480 18.171702 -11.741257 1.887243 -29.663497 4.635134 2.717720 12.412168 -15.300800 37.611555 -0.943449 -8.425337 1.367992 0.221090 0.040130 0.051490 -3.967692 1.741442 -7.983388 6.470542 8.272172 11.526553 -4.426461 10.837775 13.387814 6.556194 1.510510 -12.576762 1.764746 -10.871927 36.593897 2.987430 -12.933230 -9.317250 -20.485481 -19.162451 11.157287 -51.247722 -10.063405 1.641450 -123.884456 -67.992631 90.833577 -3.739640 3.062111 0.163420 -0.035900 -0.006290 0.127700 8.134795 25.371940 4.091735 9.558119 26.066126 -3.860485 -4.560891 48.523233 0.171370 2.036061 -1.578764 -0.025110 0.154430 -0.081060 -0.025390 
-0.720540 15.957220 -1.998630 -4.959987 29.477539 -14.793443 -15.338372 12.012492 3.256674 19.649544 2.897041 -37.054521 13.935696 6.985092 49.421174 0.436462 8.528865 1.362465 0.362420 0.269100 0.177610 18.206597 -11.789178 1.860827 -30.532641 4.328497 1.773858 11.638020 -15.250409 38.222494 -0.933089 -8.417311 1.361023 0.236360 0.052900 0.053020 -4.021918 1.689107 -7.928948 6.750826 7.785953 11.246819 -4.827104 10.342694 13.707690 6.437747 1.818244 -12.361637 2.256496 -10.299538 36.520882 3.244060 -12.015620 -9.378520 -20.396146 -19.263132 11.151944 -50.609635 -11.382182 2.691018 -133.124870 -67.960752 102.777241 -3.670258 3.080129 0.162950 -0.023170 -0.007740 0.133500 8.229468 24.730572 3.980596 11.393967 25.976420 -3.766714 -2.624539 52.666864 0.772452 1.992104 -1.601091 -0.031930 0.165170 -0.084390 -0.028810 
-0.715080 15.963690 -1.995060 -4.020282 25.500746 -15.000042 -15.257009 12.205584 3.120137 21.186028 2.789981 -33.960066 12.124650 7.965715 50.133382 0.424890 8.756511 1.281176 0.395170 0.311170 0.220230 18.272957 -11.880529 1.786164 -32.035850 3.500441 -0.260523 9.512688 -14.767967 39.188206 -0.896851 -8.306515 1.363907 0.280300 0.056120 0.066580 -4.116935 1.480900 -7.831717 7.682526 6.466048 10.824529 -5.651779 8.984593 14.327962 6.226598 2.043594 -11.899121 2.526861 -8.983294 36.167972 2.164840 -9.557090 -9.843850 -19.968664 -19.766629 10.993851 -47.535953 -14.596329 5.435468 -151.040497 -66.440753 126.726454 -3.591826 3.192498 0.169180 0.004520 -0.000100 0.130920 8.128956 23.970584 3.706411 14.866059 26.593425 -2.990156 2.547813 59.628307 2.930683 1.924747 -1.654286 -0.046700 0.178990 -0.090400 -0.053950 
-0.710370 15.968510 -1.991610 -2.921963 20.147044 -15.133361 -15.177536 12.485409 3.012963 22.833859 2.491159 -30.213672 9.672536 9.321660 50.763268 0.430568 9.053564 1.182604 0.412800 0.332760 0.259260 18.332740 -11.923551 1.702084 -33.312014 2.354214 -3.561192 6.659479 -13.999187 40.692967 -0.841291 -8.133848 1.387992 0.311600 0.061160 0.078670 -4.149909 1.014219 -7.751829 8.945955 4.718076 10.769333 -6.205496 7.133748 14.741161 5.628882 1.666101 -11.527364 1.621340 -7.207138 35.428400 0.729450 -6.800440 -10.368180 -19.094325 -20.373163 10.475998 -43.263099 -18.636666 8.340321 -167.109379 -63.863872 150.523473 -3.589812 3.271529 0.176360 0.037180 0.001220 0.121210 8.285726 23.490532 3.924677 18.224394 26.625671 -2.091083 12.918504 69.611909 8.802180 1.889635 -1.782306 -0.067340 0.190430 -0.089180 -0.084870 
-0.708860 15.963040 -1.993600 -1.549862 14.541280 -15.014622 -15.126996 12.776127 2.928150 23.875838 1.976321 -26.571972 7.074920 10.709521 51.034717 0.456895 9.339353 1.096327 0.429410 0.357350 0.282920 18.375887 -11.874046 1.630538 -34.387410 1.074317 -7.344414 3.651895 -12.993721 41.857448 -0.774405 -7.914859 1.428214 0.342500 0.075100 0.094560 -4.115334 0.344061 -7.657187 10.009484 2.772673 10.826244 -6.282567 4.950726 15.242816 4.583859 0.613728 -11.191268 -0.484929 -5.257392 34.096853 -0.465190 -4.337800 -10.893120 -17.101137 -20.706628 9.416315 -38.185156 -23.705078 11.216985 179.018008 -60.218600 173.690029 -3.625948 3.331173 0.166540 0.073080 -0.005770 0.118260 8.211742 23.010302 4.599972 20.999270 26.398734 -0.651691 26.664787 78.188015 19.060850 1.904883 -1.929850 -0.078570 0.195120 -0.087700 -0.102720 
-0.706370 15.955130 -2.002930 -0.089905 7.853846 -14.875353 -15.088587 13.051202 2.864732 24.824004 1.349784 -22.274844 3.758847 12.427403 50.706616 0.507177 9.618868 1.002798 0.477130 0.424390 0.337650 18.416996 -11.767002 1.591463 -34.541534 -0.362484 -12.592450 -0.279257 -11.492238 43.602469 -0.737310 -7.652844 1.481314 0.382170 0.045670 0.115360 -4.062262 -0.369092 -7.564666 11.214229 0.651613 11.226933 -6.760282 2.441442 15.868662 3.621954 -0.354611 -11.171584 -2.398191 -2.896692 33.082635 -1.997620 -1.209420 -12.330190 -14.070708 -20.642044 7.915609 -31.558194 -28.184346 11.886254 165.198394 -57.421695 -161.115856 -3.676207 3.336626 0.173280 0.085640 0.024100 0.114730 6.886912 21.905398 5.914690 24.147792 27.508021 4.335166 59.628061 85.885804 46.584512 2.272088 -1.587359 -0.067150 0.183410 -0.110100 -0.127240 
-0.704100 15.948760 -2.032690 1.279065 1.086237 -14.728691 -15.049079 13.134815 2.838389 25.112782 0.390109 -18.638480 0.661354 14.032775 50.713867 0.576224 9.974633 0.889129 0.507280 0.461130 0.411180 18.483259 -11.610306 1.649107 -33.807704 -1.750165 -18.312495 -3.984807 -9.903745 44.679580 -0.720752 -7.379413 1.536583 0.399630 -0.000130 0.141040 -4.084022 -0.796315 -7.517433 12.629737 -1.216376 12.437424 -7.971973 -0.028301 14.608653 2.998269 -0.430279 -10.241456 -2.492857 -0.612121 32.396575 -3.951930 2.483530 -14.198800 -12.451472 -21.062742 6.603633 -22.504037 -30.656946 10.332876 158.017740 -56.829109 -146.598851 -3.780236 3.252764 0.205320 0.090440 0.070470 0.092550 6.223114 21.101748 4.970473 30.430448 25.500657 -0.020769 109.754431 76.723584 85.065598 2.958735 1.976988 -0.064600 0.165390 -0.126030 -0.170050 
-0.703840 15.921780 -2.061310 2.751483 -5.849777 -14.630268 -15.026035 13.126583 2.935439 25.016519 -0.858188 -15.715570 -2.551888 15.892674 51.392890 0.722716 10.506118 0.738288 0.502170 0.454680 0.446320 18.528381 -11.341306 1.825736 -32.166034 -2.876950 -24.411596 -7.714434 -8.213870 45.545204 -0.707084 -7.158469 1.595236 0.389360 -0.027580 0.153000 -4.094898 -1.263734 -7.657679 13.447382 -2.677768 14.338433 -8.114485 -2.020895 14.127632 1.958477 -0.864049 -10.431894 -3.172514 1.879006 31.104002 -5.207540 5.700340 -15.406020 -10.752912 -22.094656 4.700519 -10.979940 -32.408577 6.511722 146.389998 -58.025420 -127.276927 -3.862208 3.100167 0.227880 0.092540 0.095190 0.073030 6.567357 21.298736 6.988464 32.317536 21.783090 -0.492384 139.638612 69.281625 113.950338 1.966595 -0.914977 -0.070090 0.144940 -0.129860 -0.200600 
-0.707230 15.879940 -2.084230 3.777900 -12.907126 -14.147327 -15.100550 13.046656 3.181239 25.653801 -2.250983 -13.380502 -6.954429 18.306197 51.052060 0.903050 11.074514 0.570903 0.484740 0.441950 0.469820 18.497369 -10.897032 1.981423 -29.072546 -3.481672 -30.318851 -11.940588 -6.103530 46.036654 -0.715884 -6.951165 1.661721 0.362310 -0.060660 0.171370 -3.921957 -1.906683 -7.819025 12.927964 -4.051580 16.357782 -6.701232 -4.064622 13.013511 0.922149 -0.760504 -10.832643 -2.912915 4.422084 29.659820 -6.456430 9.089910 -16.701700 -9.104637 -22.995780 3.169554 0.215230 -32.803431 2.631739 131.364592 -61.635605 -108.126029 -3.908465 2.802882 0.245960 0.090600 0.127670 0.050000 7.004221 21.231849 8.677248 33.195662 18.778782 0.933387 149.163056 63.200874 118.873438 1.992228 -1.441698 -0.062020 0.109320 -0.130950 -0.223480 
-0.705190 15.833370 -2.110410 4.469993 -21.059548 -13.681458 -15.223650 12.881232 3.606867 27.140104 -3.977827 -11.183142 -13.213890 21.512924 49.640412 1.125694 11.777274 0.376093 0.427170 0.374360 0.491310 18.427134 -10.335127 2.101721 -24.533174 -3.487066 -35.686046 -16.580993 -3.562614 44.747169 -0.699976 -6.580103 1.798913 0.305960 -0.086880 0.164420 -3.675377 -2.631837 -8.067189 11.801187 -5.196174 18.693225 -3.953010 -5.771601 11.761517 -0.109539 -0.462622 -11.228600 -2.568098 7.548685 29.951392 -8.051010 13.176120 -17.384450 -6.648108 -23.956312 1.520749 8.424644 -32.075457 -1.508783 101.715913 -67.822345 -72.198695 -3.451383 0.866032 0.284560 0.085360 0.152150 0.009920 6.714677 21.292671 10.296208 34.224053 14.942263 0.596028 148.595183 59.194871 111.820023 2.116797 -1.578073 -0.085780 0.093050 -0.115770 -0.262650 
-0.708220 15.778680 -2.124760 4.802862 -27.901173 -12.531939 -15.355394 12.648776 3.942323 28.355329 -5.889767 -9.367134 -19.787075 23.839585 46.504313 1.305108 12.142433 0.288278 0.378270 0.322490 0.492810 18.373397 -9.661675 2.337517 -20.051715 -3.189231 -41.284828 -20.336216 -1.811964 43.690036 -0.719883 -6.417890 1.863116 0.250530 -0.104490 0.167330 -3.497826 -3.378236 -8.314756 10.770435 -6.602084 20.237111 -1.652421 -7.499570 9.929096 -1.247590 -0.160269 -11.331693 -2.331713 10.326839 30.081076 -8.690000 16.494230 -17.598730 -3.408976 -25.748711 -1.165024 13.237890 -29.862110 -8.254516 47.657092 -70.970320 -26.922337 -3.568082 2.612298 0.304560 0.078040 0.175950 -0.012210 5.828236 21.765634 12.124086 36.547423 10.892564 -0.882954 142.869443 58.008151 99.865097 2.262815 -1.612238 -0.088370 0.064110 -0.110000 -0.277480 
-0.726660 15.724790 -2.136350 5.362317 -32.975544 -11.843135 -15.446822 12.432803 4.189556 29.073340 -7.671517 -7.873047 -25.679361 25.318180 43.349837 1.451246 12.322559 0.261794 0.352420 0.294070 0.477660 18.341502 -9.120509 2.564988 -16.938332 -3.064103 -45.742792 -22.637781 -0.989593 43.105217 -0.747330 -6.396419 1.881993 0.213040 -0.114480 0.157290 -3.417714 -3.923823 -8.538853 10.115156 -7.678055 21.440417 0.152636 -8.557802 9.184031 -2.216976 -1.246032 -12.286513 -4.671090 12.563816 29.957294 -8.490940 17.852810 -17.234660 -1.315655 -26.017122 -1.167362 16.936049 -29.410190 -8.401130 23.287304 -53.194993 -7.246807 -3.733440 3.182375 0.319890 0.055710 0.190020 -0.012170 5.791893 22.132603 12.995049 37.760089 7.697219 -2.457961 136.150707 56.754429 87.033641 2.389297 -1.674796 -0.085480 0.053200 -0.112140 -0.272030 
-0.740620 15.682850 -2.148460 6.073733 -37.202951 -12.168581 -15.490933 12.350260 4.314463 29.172132 -9.021510 -5.776332 -30.252826 25.985691 40.483535 1.553623 12.342142 0.274271 0.360200 0.306340 0.474950 18.325059 -8.756233 2.716212 -14.243202 -2.785910 -48.820107 -24.708890 -0.177764 42.822703 -0.799816 -6.429174 1.876829 0.198090 -0.140630 0.145460 -3.390634 -4.355384 -8.662238 9.413659 -8.587959 23.021447 1.193290 -9.400515 8.946125 -3.148387 -2.337774 -13.349344 -7.334668 14.707163 29.986546 -7.570920 18.629350 -17.657740 0.566033 -26.985853 -1.337913 18.523544 -29.102030 -7.962688 12.332903 -32.583820 -1.039146 -3.748823 3.259888 0.349990 0.011380 0.220470 -0.006830 5.866993 22.981795 13.828360 39.283181 5.352700 -4.193324 130.172804 55.841441 76.449041 2.474022 -1.728809 -0.072240 0.051850 -0.122790 -0.263930 
-0.747170 15.658740 -2.141220 6.008004 -40.839283 -12.304802 -15.522996 12.398139 4.402554 29.472697 -9.935216 -3.686042 -33.328370 26.222399 38.189320 1.633386 12.298740 0.303584 0.345350 0.285390 0.477620 18.295480 -8.519324 2.771539 -11.818924 -2.329981 -50.404797 -25.600835 0.230569 42.344350 -0.818475 -6.318497 1.925536 0.157710 -0.178470 0.125010 -3.290765 -4.772962 -8.762414 9.033925 -9.581050 24.815030 2.307276 -10.390824 8.443203 -3.291417 -2.841093 -14.498708 -9.040727 16.409924 31.027739 -7.450220 19.848590 -18.246520 1.450241 -27.660878 -0.969713 18.416720 -26.844382 -7.193227 8.220184 -21.535899 0.027821 -3.703890 3.165556 0.397580 -0.041670 0.257420 -0.011980 5.380986 23.332629 14.098294 39.695435 3.707770 -5.667826 123.252522 54.992674 66.284569 2.541305 -1.760440 -0.070040 0.048300 -0.131460 -0.268300 
